<?xml version="1.0" ?><!DOCTYPE svg  PUBLIC '-//W3C//DTD SVG 1.1//EN'  'http://www.w3.org/Graphics/SVG/1.1/DTD/svg11.dtd'><svg enable-background="new 0 0 64 64" height="64px" id="Layer_1" version="1.1" viewBox="0 0 64 64" width="64px" xml:space="preserve" xmlns="http://www.w3.org/2000/svg" xmlns:xlink="http://www.w3.org/1999/xlink"><g><circle cx="32" cy="31.999" fill="#2364CE" r="30"/><circle cx="32" cy="31.999" fill="#2364CE" r="30"/><path d="M53.214,10.787c11.717,11.716,11.715,30.709,0,42.425C41.497,64.929,22.503,64.93,10.787,53.213" fill="#074AAA"/><path d="M4.334,34.332c0-16.568,13.432-29.999,30-29.999c7.688,0,14.7,2.896,20.009,7.651   C48.851,5.857,40.877,2,32,2C15.432,2,2,15.431,2,31.999c0,8.88,3.86,16.856,9.991,22.349C7.232,49.038,4.334,42.025,4.334,34.332z   " fill="#3981EA"/><g><path d="M23.803,16.229c-2.595,0-5.313,0.053-6.993,0.132c-0.21,0-0.81,0.132-0.81,0.316v27.886    C16,44.8,16.132,45,16.342,45h4.294C20.872,45,21,44.712,21,44.501v-9.624c1,0,1.102,0.054,2.098,0.054    c5.922,0,10.769-2.876,10.769-9.575C33.866,20.237,31.062,16.229,23.803,16.229z M23.188,30.736c-1.05,0-1.188,0-2.188-0.053    V20.503c1-0.027,1.534-0.081,2.581-0.081c3.485,0,5.556,1.688,5.556,5.04C29.137,29.655,26.254,30.736,23.188,30.736z" fill="#C8D8E8"/><path d="M44.138,32.53c-2.779-1.451-3.248-2.11-3.248-3.061c0-0.869,0.705-1.925,2.776-1.925    c1.702,0,3.596,0.447,4.75,1.187C48.678,28.812,49,28.679,49,28.469v-3.614c0-0.185-0.244-0.396-0.455-0.527    c-0.863-0.396-2.529-0.738-4.783-0.738c-4.586,0-7.28,2.822-7.28,6.225c0,3.034,1.522,4.854,5.243,6.646    c2.646,1.371,3.236,2.217,3.236,3.165c0,1.188-0.869,2.059-2.939,2.059c-1.73,0-3.837-0.476-5.487-1.557    C36.351,39.995,36,40.074,36,40.337v3.879c0,0.211,0.241,0.342,0.425,0.421c1.128,0.661,3.202,1.135,5.482,1.135    c4.321,0,7.573-2.269,7.573-6.488C49.48,36.46,48.252,34.535,44.138,32.53z" fill="#FFFFFF"/></g><path d="M44.138,32.53c-2.779-1.451-3.248-2.11-3.248-3.061c0-0.869,0.705-1.925,2.776-1.925   c1.702,0,3.596,0.447,4.75,1.187C48.678,28.812,49,28.679,49,28.469v-3.614c0-0.185-0.244-0.396-0.455-0.527   c-0.863-0.396-2.529-0.738-4.783-0.738c-4.586,0-7.28,2.822-7.28,6.225c0,3.034,1.522,4.854,5.243,6.646   c2.646,1.371,3.236,2.217,3.236,3.165c0,1.188-0.869,2.059-2.939,2.059c-1.73,0-3.837-0.476-5.487-1.557   C36.351,39.995,36,40.074,36,40.337v3.879c0,0.211,0.241,0.342,0.425,0.421c1.128,0.661,3.202,1.135,5.482,1.135   c4.321,0,7.573-2.269,7.573-6.488C49.48,36.46,48.252,34.535,44.138,32.53z" fill="#FFFFFF"/><g><g><path d="M16.81,17.693c1.68-0.079,4.282-0.132,6.877-0.132c6.898,0,9.849,3.623,10.12,8.375     c0.01-0.194,0.056-0.38,0.056-0.581c0-5.118-2.815-9.127-10.074-9.127c-2.595,0-5.306,0.053-6.985,0.132     c-0.211,0-0.803,0.132-0.803,0.316v1.333C16,17.824,16.6,17.693,16.81,17.693z" fill="#FFFFFF"/><path d="M23.188,32.069c3.065,0,5.98-1.081,5.98-5.274c0-0.185-0.015-0.344-0.026-0.52     c-0.355,3.52-3.106,4.461-5.962,4.461c-1.05,0-1.181,0-2.181-0.053v1.333C22,32.069,22.139,32.069,23.188,32.069z" fill="#FFFFFF"/></g><g><path d="M44.138,32.53c-2.057-1.073-2.846-1.714-3.117-2.359c-0.195-0.597-0.153-0.572-0.153-0.367     c0,0.95,0.491,2.608,3.271,4.06c3.771,1.838,5.098,3.744,5.304,6.201c0.018-0.213,0.039-0.559,0.039-0.781     C49.48,36.46,48.252,34.535,44.138,32.53z" fill="#C8D8E8"/><path d="M36.531,41.46c1.65,1.081,3.646,1.557,5.376,1.557c2.07,0,2.987-0.871,2.987-2.059     c0-0.221,0.012-0.368-0.071-0.584c-0.37,0.783-1.174,1.31-2.821,1.31c-1.73,0-3.827-0.476-5.478-1.557     C36.341,39.995,36,40.074,36,40.337v1.333C36,41.406,36.348,41.328,36.531,41.46z" fill="#C8D8E8"/><path d="M43.666,24.922c2.254,0,4.016,0.342,4.879,0.738C48.756,25.791,49,26.003,49,26.188v-1.333     c0-0.185-0.244-0.396-0.455-0.527c-0.863-0.396-2.529-0.738-4.783-0.738c-4.586,0-7.28,2.822-7.28,6.225     c0,0.22,0.003,0.418,0.019,0.624C36.844,27.361,39.403,24.922,43.666,24.922z" fill="#C8D8E8"/></g></g></g></svg>