<?xml version="1.0" ?><svg version="1.1" viewBox="0 19.0293006896973 169.888000488281 132.609706878662" xmlns="http://www.w3.org/2000/svg" xmlns:xlink="http://www.w3.org/1999/xlink"><defs><linearGradient gradientTransform="rotate(-55.687 0.0792079 0.986366)" id="def0" x1="0.0792079" x2="1.24279" y1="0.986366" y2="0.986366"><stop offset="0" stop-color="#084A16"/><stop offset="1" stop-color="#35AA47"/></linearGradient><linearGradient gradientTransform="rotate(-63.3345 0.386479 0.734188)" id="def1" x1="0.386479" x2="2.41838" y1="0.734188" y2="0.734188"><stop offset="0" stop-color="#084A16"/><stop offset="1" stop-color="#24752F"/></linearGradient><linearGradient gradientTransform="rotate(-30.9987 -0.261672 1.04927)" id="def2" x1="-0.261672" x2="1.30791" y1="1.04927" y2="1.04927"><stop offset="0" stop-color="#49B247"/><stop offset="1" stop-color="#54B847"/></linearGradient><linearGradient id="def3" x1="0.161993" x2="1.76331" y1="0.499995" y2="0.499995"><stop offset="0" stop-color="#084A16"/><stop offset="1" stop-color="#35AA47"/></linearGradient><linearGradient id="def4" x1="0.499988" x2="0.499986" y1="4.15245" y2="-2.21026"><stop offset="0" stop-color="#54B847"/><stop offset="1" stop-color="#1D6C2C"/></linearGradient></defs><g><path d="M0,62.9533L11.796,110.636 20.608,99.3253 21.4387,98.26 22.436,96.9813 23.996,94.9787C43.804,102.188,59.4813,117.945,74.0187,136.063L74.0187,136.063C79.5667,129.021,85.112,121.976,90.66,114.932L90.66,114.932C76.012,97.904,60.7467,81.8547,40.4333,73.892L49.4467,62.324 0,62.9533z" fill="url(#def0)"/><path d="M1.976,64.0173C30.6107,79.3467,58.0067,95.6907,76.96,118.941L76.96,118.941C76.5507,112.828,76.1373,106.719,75.7267,100.604L75.7267,100.604C65.4893,89.6853,52.7787,81.2413,38.152,74.7067L38.152,74.7067C38.616,74.268,39.0853,73.8293,39.552,73.3907L39.552,73.3907C42.3747,69.9653,45.196,66.54,48.0187,63.1133L48.0187,63.1133C32.6707,63.416,17.3227,63.716,1.976,64.0173z" fill="url(#def1)"/><g><path d="M120.443,62.3249L129.456,73.8916C109.141,81.8543 93.8787,97.9036 79.228,114.933 84.776,121.977 90.3227,129.021 95.8693,136.062 110.407,117.945 126.084,102.188 145.892,94.9796L147.452,96.9823 148.451,98.2609 149.28,99.3249 158.092,110.636 169.888,62.9529 120.443,62.3249z" fill="#36AA47"/></g><path d="M101.835,104.421L101.835,125.927C115.271,112.376,128.191,99.228,146.399,93.7653L157.407,107.956C160.805,94.908,164.613,77.9173,168.013,64.872L168.013,64.872C145.071,74.7027,122.996,87.8253,101.835,104.421z" fill="url(#def2)"/><path d="M56.1987,57.644L73.2387,57.644 73.2387,151.639 100.137,151.639 100.137,57.644 117.447,57.644 87.0893,19.0293 56.1987,57.644z" fill="url(#def3)"/><path d="M86.9373,20.48L86.8213,151.639 98.4067,151.639 98.2133,56.92 99.5453,56.92 115.82,56.92 100.037,37.3213 87.204,20.1453 86.9373,20.48z" fill="url(#def4)"/><path d="M86.9375,20.4799L113.233,56.9199 115.82,56.9199 100.036,37.3212 87.2041,20.1465 86.9375,20.4799z" fill="#66BB46"/><path d="M167.361,65.1511L155.985,106.182 157.349,108.383 167.786,65.2031 167.361,65.1511z" fill="#66BB46"/><path d="M2.09173,64.2637L46.4504,65.1464 47.9224,63.0771 1.97573,63.8491 2.09173,64.2637z" fill="#66BB46"/></g></svg>